<svg width="1440" height="1024" viewBox="0 0 1440 1024" fill="none" xmlns="http://www.w3.org/2000/svg">
<path d="M110.095 425.74C126.109 254.147 43.3706 139.083 0 103V1027H1179C1133 973 926.397 949.742 556.479 936.913C94.081 920.876 90.0775 640.232 110.095 425.74Z" stroke="#2FA060"/>
<path d="M1000.97 400.401C707.553 370.002 544.058 84.9261 528 -11H1440V903C1395.11 732.765 1305.33 451.067 1000.97 400.401Z" stroke="#2FA060"/>
<path d="M1039 406C771 376 621.667 94.6667 607 0H1440V902C1399 734 1317 456 1039 406Z" fill="#2FA060"/>
<path d="M1017.97 291.401C724.553 261.002 561.058 -24.0739 545 -120H1457V794C1412.11 623.765 1322.33 342.067 1017.97 291.401Z" stroke="white"/>
</svg>
