<svg width="28" height="33" viewBox="0 0 28 33" fill="none" xmlns="http://www.w3.org/2000/svg">
<path d="M18.6156 2V7.4375C18.6156 8.43852 19.4421 9.25 20.4617 9.25H26M8.46196 9.25H12.1542M8.46196 14.6875H19.5386M8.46196 20.125H19.5386M23.2308 4.71875C22.4092 3.99699 21.5566 3.14094 21.0183 2.58495C20.6602 2.21498 20.1653 2 19.6454 2H5.69236C3.65321 2 2.00016 3.62296 2.00014 5.62498L2 27.3749C1.99999 29.3769 3.65304 30.9999 5.6922 30.9999L22.3073 31C24.3464 31 25.9994 29.3771 25.9995 27.3751L26 8.15923C26 7.69577 25.8199 7.25026 25.4923 6.91661C24.8865 6.29962 23.8748 5.28443 23.2308 4.71875Z" stroke="white" stroke-width="3" stroke-linecap="round" stroke-linejoin="round"/>
</svg>
