<svg width="40" height="40" viewBox="0 0 40 40" fill="none" xmlns="http://www.w3.org/2000/svg">
<path d="M21.6333 9.36112C23.883 9.73818 25.9267 10.8008 27.5583 12.429C29.1898 14.0571 30.246 16.0967 30.6324 18.3418M21.9768 2C25.9783 2.67698 29.6277 4.57082 32.5301 7.4587C35.4325 10.3552 37.3216 13.9971 38 17.9905M34.8743 33.8781C34.8743 33.8781 32.7018 36.0119 32.1694 36.6375C31.3021 37.563 30.2803 38 28.9407 38C28.8119 38 28.6745 38 28.5457 37.9914C25.9954 37.8286 23.6254 36.8346 21.8479 35.9862C16.9877 33.6382 12.72 30.3047 9.1736 26.08C6.24546 22.558 4.28764 19.3016 2.99101 15.8053C2.19242 13.6715 1.90047 12.009 2.02927 10.4408C2.11514 9.43822 2.50155 8.60699 3.21427 7.89573L6.14241 4.97357C6.56317 4.57938 7.00969 4.36515 7.44763 4.36515C7.9886 4.36515 8.42654 4.69078 8.70132 4.965C8.7099 4.97357 8.71849 4.98214 8.72708 4.99071C9.25088 5.47917 9.74892 5.98476 10.2727 6.52463C10.5389 6.79885 10.8137 7.07307 11.0885 7.35586L13.4327 9.69531C14.3429 10.6037 14.3429 11.4435 13.4327 12.3518C13.1837 12.6003 12.9433 12.8488 12.6942 13.0888C11.9729 13.8257 12.5396 13.2603 11.7925 13.9287C11.7753 13.9458 11.7582 13.9544 11.7496 13.9715C11.0111 14.7085 11.1485 15.4283 11.303 15.9168C11.3116 15.9425 11.3202 15.9682 11.3288 15.9939C11.9385 17.4679 12.7972 18.8561 14.1024 20.51L14.111 20.5186C16.481 23.4321 18.9798 25.703 21.7362 27.4426C22.0882 27.6654 22.4489 27.8454 22.7924 28.0168C23.1015 28.171 23.3934 28.3167 23.6425 28.4709C23.6768 28.4881 23.7112 28.5138 23.7455 28.5309C24.0375 28.6766 24.3122 28.7452 24.5956 28.7452C25.3083 28.7452 25.7549 28.2996 25.9008 28.1539L27.584 26.4742C27.8759 26.1828 28.3396 25.8315 28.8806 25.8315C29.413 25.8315 29.8509 26.1657 30.1171 26.457C30.1257 26.4656 30.1257 26.4656 30.1343 26.4742L34.8657 31.1959C35.7502 32.07 34.8743 33.8781 34.8743 33.8781Z" stroke="white" stroke-width="3" stroke-linecap="round" stroke-linejoin="round"/>
</svg>
