<svg width="30" height="30" viewBox="0 0 30 30" fill="none" xmlns="http://www.w3.org/2000/svg">
<path d="M27.1023 29.5306L17.5568 19.9715C16.7045 20.6543 15.7244 21.1949 14.6165 21.5932C13.5085 21.9915 12.3295 22.1906 11.0795 22.1906C7.98295 22.1906 5.3625 21.1164 3.21818 18.9679C1.07386 16.8193 0.00113636 14.1952 0 11.0953C0 7.99431 1.07273 5.37013 3.21818 3.22276C5.36364 1.07539 7.98409 0.00113798 11.0795 0C14.1761 0 16.7966 1.07425 18.9409 3.22276C21.0852 5.37127 22.158 7.99545 22.1591 11.0953C22.1591 12.3471 21.9602 13.5277 21.5625 14.6373C21.1648 15.7468 20.625 16.7283 19.9432 17.5818L29.5312 27.1835C29.8438 27.4964 30 27.8805 30 28.3357C30 28.7909 29.8295 29.1892 29.4886 29.5306C29.1761 29.8435 28.7784 30 28.2955 30C27.8125 30 27.4148 29.8435 27.1023 29.5306ZM11.0795 18.7767C13.2102 18.7767 15.0216 18.0296 16.5136 16.5354C18.0057 15.0413 18.7511 13.2279 18.75 11.0953C18.75 8.96159 18.004 7.14765 16.5119 5.65348C15.0199 4.15932 13.2091 3.4128 11.0795 3.41394C8.94886 3.41394 7.1375 4.16102 5.64545 5.65519C4.15341 7.14936 3.40795 8.96273 3.40909 11.0953C3.40909 13.229 4.15511 15.043 5.64716 16.5371C7.1392 18.0313 8.95 18.7778 11.0795 18.7767Z" fill="#2FA060"/>
</svg>
